<svg xmlns="http://www.w3.org/2000/svg" viewBox="0 0 1600 900" role="img" aria-labelledby="title desc">
  <title id="title">AI Builders Meetup cover</title>
  <desc id="desc">Stylized meetup cover with connected nodes and laptop light.</desc>
  <defs>
    <linearGradient id="bg" x1="0" y1="0" x2="1" y2="1">
      <stop offset="0" stop-color="#a56b43"/>
      <stop offset="0.38" stop-color="#44504a"/>
      <stop offset="1" stop-color="#061719"/>
    </linearGradient>
    <linearGradient id="shade" x1="0" y1="0" x2="0" y2="1">
      <stop offset="0" stop-color="#020404" stop-opacity="0"/>
      <stop offset="1" stop-color="#020404" stop-opacity="0.78"/>
    </linearGradient>
  </defs>
  <rect width="1600" height="900" fill="url(#bg)"/>
  <g opacity="0.54" stroke="#18cbd4" stroke-width="7">
    <path d="M280 270 L520 190 L810 330 L1080 230 L1320 380"/>
    <path d="M520 190 L610 520 L910 610 L1080 230"/>
    <path d="M810 330 L910 610 L1320 380"/>
  </g>
  <g fill="#18cbd4">
    <circle cx="280" cy="270" r="26"/><circle cx="520" cy="190" r="22"/><circle cx="810" cy="330" r="30"/>
    <circle cx="1080" cy="230" r="24"/><circle cx="1320" cy="380" r="28"/><circle cx="610" cy="520" r="24"/><circle cx="910" cy="610" r="30"/>
  </g>
  <rect x="380" y="520" width="850" height="185" rx="22" fill="#061113" opacity="0.76"/>
  <rect x="465" y="555" width="680" height="84" rx="12" fill="#d0a06a" opacity="0.42"/>
  <rect width="1600" height="900" fill="url(#shade)"/>
  <text x="120" y="710" fill="#fff7e8" font-family="Georgia, serif" font-size="118" font-weight="900">AI MEETUP</text>
</svg>
