<svg xmlns="http://www.w3.org/2000/svg" viewBox="0 0 2200 640" role="img" aria-labelledby="title desc">
  <title id="title">Huddlz footer community image</title>
  <desc id="desc">Wide stylized community gathering banner for the Huddlz footer.</desc>
  <defs>
    <linearGradient id="bg" x1="0" y1="0" x2="1" y2="1">
      <stop offset="0" stop-color="#071314"/>
      <stop offset="0.42" stop-color="#22494d"/>
      <stop offset="1" stop-color="#090d0e"/>
    </linearGradient>
    <radialGradient id="glow" cx="62%" cy="18%" r="60%">
      <stop offset="0" stop-color="#18cbd4" stop-opacity="0.34"/>
      <stop offset="1" stop-color="#18cbd4" stop-opacity="0"/>
    </radialGradient>
    <linearGradient id="shade" x1="0" y1="0" x2="0" y2="1">
      <stop offset="0" stop-color="#020404" stop-opacity="0.06"/>
      <stop offset="1" stop-color="#020404" stop-opacity="0.78"/>
    </linearGradient>
  </defs>
  <rect width="2200" height="640" fill="url(#bg)"/>
  <rect width="2200" height="640" fill="url(#glow)"/>
  <path d="M0 500 C280 410 455 470 690 425 C980 368 1210 420 1450 365 C1715 305 1910 380 2200 310 L2200 640 L0 640 Z" fill="#020707" opacity="0.75"/>
  <g opacity="0.92">
    <circle cx="420" cy="295" r="58" fill="#c18b5a"/>
    <circle cx="575" cy="265" r="68" fill="#19282a"/>
    <circle cx="745" cy="310" r="56" fill="#d1a06a"/>
    <circle cx="1390" cy="280" r="62" fill="#132426"/>
    <circle cx="1570" cy="245" r="72" fill="#b98255"/>
    <circle cx="1745" cy="305" r="58" fill="#203335"/>
    <path d="M300 590 C340 405 492 390 570 515 C640 382 790 398 860 590 Z" fill="#0c1718"/>
    <path d="M1280 590 C1320 410 1490 378 1574 512 C1650 382 1810 420 1875 590 Z" fill="#0c1718"/>
  </g>
  <path d="M1030 180 H1320 L1240 470 H930 Z" fill="none" stroke="#18cbd4" stroke-width="8" opacity="0.4"/>
  <rect width="2200" height="640" fill="url(#shade)"/>
</svg>
